<svg xmlns="http://www.w3.org/2000/svg" viewBox="0 0 13.11 24.24"><defs><style>.cls-1{fill:#f9fcfc;}</style></defs><g id="Capa_2" data-name="Capa 2"><g id="Capa_1-2" data-name="Capa 1"><path class="cls-1" d="M12.61,0H9.47C5.94,0,3.66,2.34,3.66,6V8.72H.49A.49.49,0,0,0,0,9.21v4a.49.49,0,0,0,.49.49H3.66V23.75a.49.49,0,0,0,.49.49H8.27a.49.49,0,0,0,.5-.49V13.69h3.69a.49.49,0,0,0,.5-.49v-4a.47.47,0,0,0-.15-.35.48.48,0,0,0-.34-.14H8.77V6.39c0-1.13.27-1.7,1.72-1.7h2.12a.49.49,0,0,0,.5-.49V.5a.5.5,0,0,0-.5-.5"/></g></g></svg>