<svg xmlns="http://www.w3.org/2000/svg" viewBox="0 0 24.24 24.24"><defs><style>.cls-1{fill:#f9fcfc;}</style></defs><g id="Capa_2" data-name="Capa 2"><g id="Capa_1-2" data-name="Capa 1"><path class="cls-1" d="M18.13,0h-12A6.12,6.12,0,0,0,0,6.12v12a6.12,6.12,0,0,0,6.11,6.11h12a6.12,6.12,0,0,0,6.11-6.11v-12A6.12,6.12,0,0,0,18.13,0m3.48,18.13a3.49,3.49,0,0,1-3.48,3.47h-12a3.48,3.48,0,0,1-3.47-3.47v-12A3.48,3.48,0,0,1,6.11,2.64h12a3.49,3.49,0,0,1,3.48,3.48Z"/><path class="cls-1" d="M20,5.69a1.48,1.48,0,1,1-1.47-1.48A1.47,1.47,0,0,1,20,5.69"/><path class="cls-1" d="M12.12,5.88a6.24,6.24,0,1,0,6.24,6.24,6.24,6.24,0,0,0-6.24-6.24m0,9.84a3.61,3.61,0,1,1,3.6-3.6,3.6,3.6,0,0,1-3.6,3.6"/></g></g></svg>