<svg xmlns="http://www.w3.org/2000/svg" xmlns:xlink="http://www.w3.org/1999/xlink" viewBox="0 0 150.84 89.53"><defs><style>.cls-1{fill:none;}.cls-2{opacity:0.9;}.cls-3{clip-path:url(#clip-path);}.cls-4{clip-path:url(#clip-path-2);}.cls-5{fill:url(#Degradado_sin_nombre);}.cls-6{clip-path:url(#clip-path-3);}.cls-7{fill:url(#Degradado_sin_nombre-2);}.cls-8{opacity:0.5;}.cls-9{clip-path:url(#clip-path-4);}.cls-10{fill:#f9fcfc;}</style><clipPath id="clip-path" transform="translate(0 18.71)"><rect class="cls-1" x="53.49" width="43.85" height="43.85"/></clipPath><clipPath id="clip-path-2" transform="translate(0 18.71)"><path class="cls-1" d="M90.92,37.43a21.93,21.93,0,0,1-31-31l8.69,8.69A9.64,9.64,0,0,0,82.23,28.74Z"/></clipPath><linearGradient id="Degradado_sin_nombre" x1="-718.9" y1="1223.04" x2="-717.9" y2="1223.04" gradientTransform="matrix(37.43, 0, 0, -37.43, 26961.91, 45822.61)" gradientUnits="userSpaceOnUse"><stop offset="0" stop-color="#f9fcfc"/><stop offset="0.16" stop-color="#f1f4f4"/><stop offset="0.42" stop-color="#daddde"/><stop offset="0.75" stop-color="#b6b8ba"/><stop offset="1" stop-color="#949699"/></linearGradient><clipPath id="clip-path-3" transform="translate(0 18.71)"><path class="cls-1" d="M97.34,21.92a21.9,21.9,0,0,1-6.42,15.51l-8.69-8.69A9.64,9.64,0,1,0,68.6,15.11L59.91,6.42a21.93,21.93,0,0,1,37.43,15.5"/></clipPath><linearGradient id="Degradado_sin_nombre-2" x1="-710.91" y1="1206.25" x2="-709.91" y2="1206.25" gradientTransform="matrix(0, -50, -50, 0, 60385.34, -35498.75)" xlink:href="#Degradado_sin_nombre"/><clipPath id="clip-path-4" transform="translate(0 18.71)"><rect class="cls-1" y="60.89" width="150.84" height="9.92"/></clipPath></defs><g id="Capa_2" data-name="Capa 2"><g id="Capa_1-2" data-name="Capa 1"><g class="cls-2"><g class="cls-3"><g class="cls-4"><rect class="cls-5" x="53.49" y="25.13" width="37.43" height="37.43"/></g><g class="cls-6"><rect class="cls-7" x="52.16" y="-7.75" width="52.93" height="52.93" transform="translate(9.8 79.8) rotate(-45)"/></g></g></g><g class="cls-8"><g class="cls-9"><path class="cls-10" d="M92,67.12l1.79-4.33h0l1.75,4.33Zm1.28-6-4.16,9.45h1.49l.94-2.34h4.49l1,2.34h1.49l-4-9.45ZM83.05,69.28a3,3,0,0,1-1.43.33,3.52,3.52,0,0,1-1.48-.29,3.19,3.19,0,0,1-1.11-.8,3.62,3.62,0,0,1-.69-1.17,4.19,4.19,0,0,1-.24-1.42,4.37,4.37,0,0,1,.25-1.5,3.82,3.82,0,0,1,.72-1.22,3.34,3.34,0,0,1,1.1-.82,3.42,3.42,0,0,1,1.45-.3,3.13,3.13,0,0,1,1.27.28,2.57,2.57,0,0,1,1,.8L85,62.36a3.51,3.51,0,0,0-1.47-1.11,4.94,4.94,0,0,0-1.84-.36,5.17,5.17,0,0,0-2,.38,4.37,4.37,0,0,0-1.55,1,4.64,4.64,0,0,0-1,1.6,5.54,5.54,0,0,0-.36,2,5,5,0,0,0,.33,1.77,5,5,0,0,0,1,1.57,5,5,0,0,0,1.53,1.12,4.74,4.74,0,0,0,2,.42,4.52,4.52,0,0,0,1.44-.2,5.52,5.52,0,0,0,1.06-.48,4,4,0,0,0,.71-.55,4.58,4.58,0,0,0,.37-.42l-1.08-.81a3.07,3.07,0,0,1-1,.93m50.85-2.16,1.79-4.33h0l1.77,4.33Zm1.28-6L131,70.58h1.49l.94-2.34h4.49l.95,2.34h1.49l-4-9.45Zm11.32,8.24V61.13h-1.28v9.45h5.62V69.37ZM70.26,67.31a3.62,3.62,0,0,1-.72,1.2,3.47,3.47,0,0,1-1.12.8,3.75,3.75,0,0,1-2.94,0,3.47,3.47,0,0,1-1.12-.8,3.62,3.62,0,0,1-.72-1.2,4.11,4.11,0,0,1-.25-1.46,4.19,4.19,0,0,1,.25-1.46,3.68,3.68,0,0,1,.72-1.19,3.53,3.53,0,0,1,5.18,0,3.68,3.68,0,0,1,.72,1.19,4.19,4.19,0,0,1,.25,1.46,4.11,4.11,0,0,1-.25,1.46m.23-5a4.67,4.67,0,0,0-1.55-1,5.4,5.4,0,0,0-4,0,4.67,4.67,0,0,0-1.55,1,4.76,4.76,0,0,0-1,1.57,5.1,5.1,0,0,0-.37,2,5,5,0,0,0,.37,2,4.81,4.81,0,0,0,1,1.58,4.65,4.65,0,0,0,1.55,1,5.4,5.4,0,0,0,4,0,4.65,4.65,0,0,0,1.55-1,4.81,4.81,0,0,0,1-1.58,5,5,0,0,0,.37-2,5.1,5.1,0,0,0-.37-2,4.76,4.76,0,0,0-1-1.57m50.62,0h3v8.25h1.28V62.33h3v-1.2h-7.36Zm-82.59,0h3v8.25h1.28V62.33h3v-1.2H38.52Zm-6.26,6.56h0L27,61.13H25.35v9.45h1.28V62.81h0l5.25,7.77h1.63V61.13H32.26ZM14.87,66.35h4.48v-1.2H14.87V62.33h4.81v-1.2H13.59v9.45h6.34V69.37H14.87ZM6.31,69.28a3,3,0,0,1-1.43.33,3.52,3.52,0,0,1-1.48-.29,3.19,3.19,0,0,1-1.11-.8,3.62,3.62,0,0,1-.69-1.17,4.19,4.19,0,0,1-.24-1.42,4.63,4.63,0,0,1,.25-1.5,3.82,3.82,0,0,1,.72-1.22,3.34,3.34,0,0,1,1.1-.82,3.45,3.45,0,0,1,1.45-.3,3.13,3.13,0,0,1,1.27.28,2.65,2.65,0,0,1,1,.8l1.07-.81a3.36,3.36,0,0,0-1.48-1.11,4.89,4.89,0,0,0-1.83-.36,5.17,5.17,0,0,0-2,.38,4.37,4.37,0,0,0-1.55,1,4.64,4.64,0,0,0-1,1.6,5.54,5.54,0,0,0-.36,2A5,5,0,0,0,.33,67.7a5.21,5.21,0,0,0,1,1.57,5,5,0,0,0,1.53,1.12,4.74,4.74,0,0,0,2,.42,4.47,4.47,0,0,0,1.44-.2,5.25,5.25,0,0,0,1.06-.48,4,4,0,0,0,.71-.55,4.58,4.58,0,0,0,.37-.42l-1.08-.81a3.07,3.07,0,0,1-1,.93m109.83-8.15h-1.28v9.44h1.28Zm-11.53,1.12h1.68a4.52,4.52,0,0,1,.74.06,1.9,1.9,0,0,1,.66.22,1.27,1.27,0,0,1,.46.46,1.87,1.87,0,0,1,0,1.56,1.2,1.2,0,0,1-.46.46,1.9,1.9,0,0,1-.66.22,4.52,4.52,0,0,1-.74.06h-1.68Zm0,4.16h2a4,4,0,0,0,1.5-.24,2.58,2.58,0,0,0,.92-.63,2.13,2.13,0,0,0,.48-.85,3.35,3.35,0,0,0,.13-.92,3.28,3.28,0,0,0-.13-.91,2.06,2.06,0,0,0-.48-.85,2.35,2.35,0,0,0-.92-.63,3.79,3.79,0,0,0-1.5-.25h-3.32v9.45h1.28Zm-50.8-1.12H52.13v-3h1.68a4.52,4.52,0,0,1,.74.06,1.9,1.9,0,0,1,.66.22,1.27,1.27,0,0,1,.46.46,1.87,1.87,0,0,1,0,1.56,1.2,1.2,0,0,1-.46.46,1.9,1.9,0,0,1-.66.22,4.52,4.52,0,0,1-.74.06m2,.69a2.8,2.8,0,0,0,.73-.57,2.58,2.58,0,0,0,.46-.76,2.37,2.37,0,0,0,.16-.88,3.28,3.28,0,0,0-.13-.91A2.16,2.16,0,0,0,56.6,62a2.46,2.46,0,0,0-.93-.63,3.79,3.79,0,0,0-1.5-.25H50.85v9.45h1.28V66.41h1.43L56,70.58h1.6l-2.68-4.31a2.55,2.55,0,0,0,1-.29" transform="translate(0 18.71)"/></g></g></g></g></svg>